<?xml version="1.0" standalone="no"?>
<!DOCTYPE svg PUBLIC "-//W3C//DTD SVG 1.1//EN" "http://www.w3.org/Graphics/SVG/1.1/DTD/svg11.dtd">
<svg xmlns="http://www.w3.org/2000/svg" xmlns:xlink="http://www.w3.org/1999/xlink" width="705" zoomAndPan="magnify" viewBox="0 0 705 591.000005" height="591" preserveAspectRatio="xMidYMid meet" version="1.2"><defs><clipPath id="5acfdedc7f"><path d="M 448 76.011719 L 526 76.011719 L 526 272 L 448 272 Z M 448 76.011719 "/></clipPath><clipPath id="f0d1e28174"><path d="M 619 78 L 693.839844 78 L 693.839844 272 L 619 272 Z M 619 78 "/></clipPath><clipPath id="c8f769f520"><path d="M 525 254 L 693.839844 254 L 693.839844 451 L 525 451 Z M 525 254 "/></clipPath></defs><g id="d11c2529a4"><path style=" stroke:none;fill-rule:nonzero;fill:#ff5900;fill-opacity:1;" d="M 258.441406 186.519531 C 256.675781 185.109375 254.828125 184.402344 252.890625 184.402344 C 250.777344 184.402344 248.925781 184.890625 247.339844 185.855469 C 245.75 186.828125 244.960938 188.28125 244.960938 190.214844 C 244.960938 193.214844 247.117188 195.238281 251.4375 196.296875 C 255.753906 197.355469 261.128906 198.105469 267.566406 198.542969 C 274 198.988281 280.957031 199.515625 288.453125 200.132812 C 295.941406 200.75 302.902344 202.113281 309.339844 204.230469 C 315.773438 206.347656 321.148438 209.652344 325.46875 214.144531 C 329.785156 218.636719 331.945312 224.941406 331.945312 233.046875 C 331.945312 246.792969 325.554688 257.105469 312.777344 263.976562 C 299.996094 270.847656 281.359375 274.285156 256.859375 274.285156 C 243.996094 274.285156 232.757812 273.316406 223.152344 271.378906 C 213.542969 269.441406 205.390625 266.488281 198.695312 262.519531 C 191.996094 258.554688 186.667969 253.488281 182.699219 247.320312 C 178.734375 241.152344 176.046875 233.835938 174.636719 225.378906 C 173.753906 220.089844 176.046875 217.445312 181.511719 217.445312 L 230.417969 217.445312 C 235.179688 217.445312 238.566406 218.066406 240.597656 219.296875 C 242.621094 220.53125 244.871094 222.296875 247.339844 224.585938 C 248.746094 225.996094 250.777344 226.703125 253.417969 226.703125 C 255.710938 226.703125 257.691406 226.21875 259.367188 225.25 C 261.042969 224.285156 261.878906 222.828125 261.878906 220.886719 C 261.878906 217.714844 259.722656 215.644531 255.402344 214.675781 C 251.082031 213.707031 245.707031 213.003906 239.273438 212.558594 C 232.835938 212.121094 225.878906 211.59375 218.386719 210.972656 C 210.890625 210.355469 203.933594 208.988281 197.5 206.875 C 191.0625 204.761719 185.6875 201.453125 181.371094 196.960938 C 177.050781 192.46875 174.894531 186.167969 174.894531 178.058594 C 174.894531 164.3125 181.238281 154 193.929688 147.128906 C 206.621094 140.253906 225.128906 136.816406 249.449219 136.816406 C 275 136.816406 294.257812 140.699219 307.214844 148.449219 C 320.171875 156.207031 328.054688 168.632812 330.875 185.726562 C 331.753906 191.015625 329.464844 193.65625 324.003906 193.65625 L 275.625 193.65625 C 271.394531 193.65625 268.085938 193.085938 265.707031 191.9375 C 263.328125 190.792969 260.902344 188.988281 258.4375 186.519531 Z M 258.441406 186.519531 "/><path style=" stroke:none;fill-rule:nonzero;fill:#ff5900;fill-opacity:1;" d="M 403.050781 271.648438 C 391.421875 271.648438 381.8125 270.238281 374.234375 267.417969 C 366.652344 264.597656 360.617188 260.238281 356.125 254.328125 C 351.632812 248.425781 348.457031 240.804688 346.605469 231.460938 C 344.757812 222.121094 343.828125 210.929688 343.828125 197.882812 L 343.828125 173.824219 C 343.828125 169.59375 342.066406 167.042969 338.539062 166.15625 C 335.542969 165.457031 333.46875 164.527344 332.328125 163.378906 C 331.179688 162.234375 330.609375 160.429688 330.609375 157.960938 L 330.609375 147.382812 C 330.609375 142.453125 333.253906 139.628906 338.539062 138.925781 C 346.117188 137.691406 351.890625 134.296875 355.859375 128.746094 C 359.820312 123.195312 362.15625 114.425781 362.867188 102.4375 C 363.214844 97.148438 365.949219 94.507812 371.058594 94.507812 L 409.925781 94.507812 C 415.214844 94.507812 417.855469 97.148438 417.855469 102.4375 L 417.855469 131.519531 C 417.855469 136.808594 420.496094 139.449219 425.785156 139.449219 L 435.566406 139.449219 C 440.855469 139.449219 443.496094 142.09375 443.496094 147.378906 L 443.496094 157.957031 C 443.496094 163.246094 440.855469 165.886719 435.566406 165.886719 L 425.785156 165.886719 C 420.496094 165.886719 417.855469 168.53125 417.855469 173.820312 L 417.855469 202.898438 C 417.855469 206.25 417.988281 208.980469 418.253906 211.097656 C 418.519531 213.214844 419.132812 214.84375 420.101562 215.988281 C 421.070312 217.136719 422.484375 217.882812 424.332031 218.234375 C 426.183594 218.589844 428.695312 218.765625 431.871094 218.765625 L 435.570312 218.765625 C 440.859375 218.765625 443.5 221.40625 443.5 226.695312 L 443.5 263.707031 C 443.5 268.996094 440.859375 271.636719 435.570312 271.636719 L 403.050781 271.636719 Z M 403.050781 271.648438 "/><g clip-rule="nonzero" clip-path="url(#5acfdedc7f)"><path style=" stroke:none;fill-rule:nonzero;fill:#ff5900;fill-opacity:1;" d="M 466.5 141.578125 C 469.671875 142.105469 471.609375 141.136719 472.320312 138.667969 C 473.019531 136.027344 472.054688 134.265625 469.410156 133.378906 C 462.710938 130.914062 457.554688 127.476562 453.941406 123.070312 C 450.328125 118.667969 448.523438 113.289062 448.523438 106.941406 C 448.523438 102.710938 449.402344 98.703125 451.164062 94.914062 C 452.925781 91.125 455.480469 87.863281 458.832031 85.132812 C 462.179688 82.402344 466.234375 80.199219 470.996094 78.523438 C 475.753906 76.847656 481.128906 76.011719 487.121094 76.011719 C 493.117188 76.011719 498.492188 76.847656 503.25 78.523438 C 508.007812 80.199219 512.0625 82.402344 515.410156 85.132812 C 518.753906 87.867188 521.316406 91.125 523.078125 94.914062 C 524.839844 98.703125 525.722656 102.710938 525.722656 106.941406 C 525.722656 113.289062 523.914062 118.667969 520.300781 123.070312 C 516.6875 127.476562 511.53125 130.914062 504.835938 133.378906 C 502.191406 134.265625 501.21875 136.023438 501.925781 138.667969 C 502.804688 141.136719 504.746094 142.105469 507.742188 141.578125 L 516.203125 140.519531 C 521.492188 139.640625 524.132812 141.929688 524.132812 147.390625 L 524.132812 263.714844 C 524.132812 269.003906 521.492188 271.648438 516.203125 271.648438 L 458.042969 271.648438 C 452.753906 271.648438 450.109375 269.003906 450.109375 263.714844 L 450.109375 147.390625 C 450.109375 141.929688 452.753906 139.636719 458.042969 140.519531 Z M 466.5 141.578125 "/></g><path style=" stroke:none;fill-rule:nonzero;fill:#ff5900;fill-opacity:1;" d="M 534.707031 86.585938 C 534.707031 81.300781 537.347656 78.65625 542.636719 78.65625 L 600.796875 78.65625 C 606.085938 78.65625 608.730469 81.300781 608.730469 86.585938 L 608.730469 263.71875 C 608.730469 269.007812 606.085938 271.652344 600.796875 271.652344 L 542.636719 271.652344 C 537.347656 271.652344 534.707031 269.007812 534.707031 263.71875 Z M 534.707031 86.585938 "/><g clip-rule="nonzero" clip-path="url(#f0d1e28174)"><path style=" stroke:none;fill-rule:nonzero;fill:#ff5900;fill-opacity:1;" d="M 619.304688 86.585938 C 619.304688 81.300781 621.949219 78.65625 627.238281 78.65625 L 685.398438 78.65625 C 690.6875 78.65625 693.328125 81.300781 693.328125 86.585938 L 693.328125 263.71875 C 693.328125 269.007812 690.6875 271.652344 685.398438 271.652344 L 627.238281 271.652344 C 621.949219 271.652344 619.304688 269.007812 619.304688 263.71875 Z M 619.304688 86.585938 "/></g><path style=" stroke:none;fill-rule:nonzero;fill:#ff5900;fill-opacity:1;" d="M 85.765625 460.878906 C 92.460938 460.878906 97.351562 459.160156 100.4375 455.722656 C 103.519531 452.285156 105.066406 446.601562 105.066406 438.671875 C 105.066406 437.082031 104.839844 436.074219 104.40625 435.628906 C 103.964844 435.191406 103.480469 434.882812 102.953125 434.703125 C 102.421875 434.53125 101.71875 434.570312 100.839844 434.835938 C 99.957031 435.097656 99.074219 435.761719 98.199219 436.816406 C 94.320312 440.875 89.824219 444.132812 84.714844 446.597656 C 79.601562 449.0625 73.609375 450.296875 66.738281 450.296875 C 58.449219 450.296875 50.875 448.933594 44 446.199219 C 37.128906 443.472656 31.265625 439.328125 26.417969 433.773438 C 21.570312 428.222656 17.828125 421.128906 15.183594 412.492188 C 12.539062 403.859375 11.21875 393.632812 11.21875 381.824219 C 11.21875 358.738281 16.328125 341.464844 26.550781 330.003906 C 36.769531 318.550781 50.347656 312.824219 67.265625 312.824219 C 76.605469 312.824219 83.65625 314.5 88.417969 317.84375 C 93.175781 321.195312 97.230469 325.773438 100.578125 331.59375 C 101.277344 332.828125 102.03125 333.839844 102.824219 334.632812 C 103.617188 335.425781 104.808594 335.824219 106.394531 335.824219 C 107.980469 335.824219 109.078125 335.382812 109.699219 334.5 C 110.3125 333.625 110.710938 332.476562 110.886719 331.0625 L 111.945312 323.394531 C 112.824219 318.109375 115.820312 315.464844 120.933594 315.464844 L 171.164062 315.464844 C 176.453125 315.464844 179.097656 318.109375 179.097656 323.394531 L 179.097656 442.101562 C 179.097656 454.964844 177.679688 465.933594 174.867188 475.019531 C 172.042969 484.09375 167.636719 491.496094 161.648438 497.226562 C 155.652344 502.949219 147.941406 507.136719 138.511719 509.785156 C 129.078125 512.425781 117.757812 513.75 104.539062 513.75 L 37.121094 513.75 C 31.832031 513.75 29.191406 511.109375 29.191406 505.820312 L 29.191406 468.808594 C 29.191406 463.519531 31.832031 460.878906 37.121094 460.878906 Z M 95.546875 365.964844 C 92.375 365.964844 90.082031 367.332031 88.675781 370.0625 C 87.265625 372.800781 86.5625 376.632812 86.5625 381.5625 C 86.5625 391.964844 89.558594 397.164062 95.550781 397.164062 C 98.546875 397.164062 100.882812 396.019531 102.558594 393.722656 C 104.234375 391.433594 105.070312 388.527344 105.070312 385 L 105.070312 378.128906 C 105.070312 374.605469 104.230469 371.695312 102.558594 369.40625 C 100.882812 367.117188 98.546875 365.96875 95.550781 365.96875 Z M 95.546875 365.964844 "/><path style=" stroke:none;fill-rule:nonzero;fill:#ff5900;fill-opacity:1;" d="M 187.019531 381.5625 C 187.019531 369.757812 189.175781 359.535156 193.496094 350.894531 C 197.8125 342.261719 203.675781 335.125 211.078125 329.484375 C 218.480469 323.847656 227.160156 319.660156 237.117188 316.925781 C 247.074219 314.195312 257.695312 312.828125 268.976562 312.828125 C 280.257812 312.828125 290.875 314.191406 300.835938 316.925781 C 310.789062 319.660156 319.472656 323.847656 326.875 329.484375 C 334.277344 335.125 340.136719 342.261719 344.457031 350.894531 C 348.773438 359.53125 350.933594 369.757812 350.933594 381.5625 C 350.933594 393.371094 348.773438 403.597656 344.457031 412.230469 C 340.136719 420.867188 334.277344 428.007812 326.875 433.648438 C 319.472656 439.289062 310.789062 443.472656 300.835938 446.207031 C 290.875 448.9375 280.253906 450.304688 268.976562 450.304688 C 257.699219 450.304688 247.074219 448.9375 237.117188 446.207031 C 227.15625 443.476562 218.480469 439.292969 211.078125 433.648438 C 203.675781 428.011719 197.8125 420.871094 193.496094 412.230469 C 189.179688 403.597656 187.019531 393.375 187.019531 381.5625 Z M 259.722656 381.5625 C 259.722656 387.910156 260.601562 392.582031 262.367188 395.574219 C 264.128906 398.574219 266.335938 400.066406 268.976562 400.066406 C 271.617188 400.066406 273.820312 398.574219 275.585938 395.574219 C 277.347656 392.582031 278.226562 387.90625 278.226562 381.5625 C 278.226562 374.867188 277.34375 370.109375 275.585938 367.285156 C 273.820312 364.46875 271.621094 363.058594 268.976562 363.058594 C 266.332031 363.058594 264.128906 364.46875 262.367188 367.285156 C 260.601562 370.109375 259.722656 374.867188 259.722656 381.5625 Z M 259.722656 381.5625 "/><path style=" stroke:none;fill-rule:nonzero;fill:#ff5900;fill-opacity:1;" d="M 356.222656 381.5625 C 356.222656 369.757812 358.375 359.535156 362.699219 350.894531 C 367.015625 342.261719 372.878906 335.125 380.28125 329.484375 C 387.683594 323.847656 396.363281 319.660156 406.320312 316.925781 C 416.273438 314.195312 426.894531 312.828125 438.179688 312.828125 C 449.460938 312.828125 460.074219 314.191406 470.035156 316.925781 C 479.992188 319.660156 488.675781 323.847656 496.078125 329.484375 C 503.476562 335.125 509.335938 342.261719 513.65625 350.894531 C 517.972656 359.53125 520.136719 369.757812 520.136719 381.5625 C 520.136719 393.371094 517.976562 403.597656 513.65625 412.230469 C 509.335938 420.867188 503.476562 428.007812 496.078125 433.648438 C 488.675781 439.289062 479.992188 443.472656 470.035156 446.207031 C 460.074219 448.9375 449.457031 450.304688 438.179688 450.304688 C 426.898438 450.304688 416.273438 448.9375 406.320312 446.207031 C 396.359375 443.476562 387.683594 439.292969 380.28125 433.648438 C 372.878906 428.011719 367.015625 420.871094 362.699219 412.230469 C 358.378906 403.597656 356.222656 393.375 356.222656 381.5625 Z M 428.925781 381.5625 C 428.925781 387.910156 429.804688 392.582031 431.570312 395.574219 C 433.328125 398.574219 435.535156 400.066406 438.179688 400.066406 C 440.820312 400.066406 443.023438 398.574219 444.789062 395.574219 C 446.546875 392.582031 447.429688 387.90625 447.429688 381.5625 C 447.429688 374.867188 446.546875 370.109375 444.789062 367.285156 C 443.023438 364.46875 440.824219 363.058594 438.179688 363.058594 C 435.53125 363.058594 433.328125 364.46875 431.570312 367.285156 C 429.804688 370.109375 428.925781 374.867188 428.925781 381.5625 Z M 428.925781 381.5625 "/><g clip-rule="nonzero" clip-path="url(#c8f769f520)"><path style=" stroke:none;fill-rule:nonzero;fill:#ff5900;fill-opacity:1;" d="M 685.371094 254.664062 C 690.660156 254.664062 693.300781 257.308594 693.300781 262.597656 L 693.300781 439.730469 C 693.300781 445.015625 690.660156 447.660156 685.371094 447.660156 L 635.140625 447.660156 C 630.023438 447.660156 627.03125 445.015625 626.152344 439.730469 L 625.09375 432.0625 C 624.917969 430.652344 624.519531 429.507812 623.902344 428.621094 C 623.285156 427.746094 622.183594 427.300781 620.601562 427.300781 C 619.015625 427.300781 617.824219 427.699219 617.03125 428.492188 C 616.238281 429.285156 615.484375 430.300781 614.78125 431.53125 C 611.429688 437.347656 607.378906 441.933594 602.621094 445.28125 C 597.863281 448.625 590.808594 450.300781 581.472656 450.300781 C 564.550781 450.300781 550.976562 444.53125 540.757812 432.984375 C 530.535156 421.441406 525.425781 404.210938 525.425781 381.296875 C 525.425781 369.492188 526.75 359.269531 529.390625 350.628906 C 532.035156 341.996094 535.777344 334.898438 540.628906 329.347656 C 545.472656 323.796875 551.335938 319.65625 558.207031 316.921875 C 565.082031 314.191406 572.660156 312.824219 580.945312 312.824219 C 587.820312 312.824219 593.808594 314.058594 598.925781 316.523438 C 604.03125 318.992188 608.527344 322.253906 612.40625 326.304688 C 613.285156 327.363281 614.210938 328.023438 615.183594 328.285156 C 616.148438 328.550781 616.902344 328.597656 617.429688 328.417969 C 617.960938 328.246094 618.394531 327.933594 618.753906 327.492188 C 619.105469 327.050781 619.28125 326.039062 619.28125 324.449219 L 619.28125 262.585938 C 619.28125 257.296875 621.925781 254.65625 627.210938 254.65625 L 685.375 254.65625 Z M 609.761719 397.164062 C 612.753906 397.164062 615.089844 396.019531 616.765625 393.726562 C 618.4375 391.433594 619.273438 388.527344 619.273438 385.003906 L 619.273438 378.128906 C 619.273438 374.605469 618.4375 371.695312 616.765625 369.40625 C 615.085938 367.117188 612.75 365.96875 609.761719 365.96875 C 603.765625 365.96875 600.769531 371.171875 600.769531 381.566406 C 600.769531 386.503906 601.472656 390.339844 602.882812 393.066406 C 604.292969 395.804688 606.585938 397.167969 609.761719 397.167969 Z M 609.761719 397.164062 "/></g></g></svg>
